<svg id="Layer_1" data-name="Layer 1" xmlns="http://www.w3.org/2000/svg" viewBox="0 0 604.76 196.55"><defs><style>.cls-1,.cls-2{fill:#ed1a3b;}.cls-1,.cls-3{fill-rule:evenodd;}.cls-3,.cls-4{fill:#fff;}</style></defs><title>NZ Police Logo - Full Colour Reversed - RGB</title><path class="cls-1" d="M121.18,122.65c-.28-.49-7.51-15.89-4.8-22.32,3.9-4.63,10.09-9.81,20.88-3.38a34.67,34.67,0,0,0,4.87,2.34l-1.12,6.5,2.93,2.83,2.85-2.9.91-2.28-.7-4.28s6.26-2.63,8.21-3.53c5.29-1.45,15.1-2,16.63,4.7.63,7.26.49,12-.14,13.06s-4.24,8.64-4.24,8.64l-6.19,2.07s-5.08-5.6-5.29-5.67-6.2,2.42-6.13,2.14-5.56-3.73-5.56-3.73l-4.6,3.6s-6.89-2.56-7.3-2.35-4.74,5.8-4.74,5.8Z" transform="translate(-74.97 -75.21)"/><path class="cls-2" d="M260,112.69a5.11,5.11,0,0,0-5.67,3.32,5.58,5.58,0,0,0-.24.89L233.39,262.16h5.48l19.8-139.35A5.11,5.11,0,0,0,260,112.69Z" transform="translate(-74.97 -75.21)"/><path class="cls-3" d="M126.4,134.86a32.77,32.77,0,0,1,36,0,1.16,1.16,0,0,0,.64.19,1.21,1.21,0,0,0,.65-2.24,35.22,35.22,0,0,0-38.56,0,1.22,1.22,0,0,0,1.29,2.06Z" transform="translate(-74.97 -75.21)"/><path class="cls-3" d="M143.49,173.47V163.19c-.76-.17-1.42-.34-2-.5l-.66-.17a19.57,19.57,0,0,1-3.63-1.35v8a16.7,16.7,0,0,0,2.9,2,25.63,25.63,0,0,1,3,2Z" transform="translate(-74.97 -75.21)"/><path class="cls-3" d="M137.2,184.81v24.64a16.8,16.8,0,0,1,1.86,1.2,47.9,47.9,0,0,1,4.43,3.62v-12.9c0-.05,0-.1,0-.16a1.06,1.06,0,0,1,.76-1.15,4.15,4.15,0,0,1,1.05-.14c.53,0,1.06,0,1.59,0,1.43,0,2.87,0,4.3-.17a3.8,3.8,0,0,0,.59-.06,2.23,2.23,0,0,0-.29-.44l-.3-.44-.61-.84c-.41-.54-.83-1.06-1.27-1.58l-.21-.24c-2,.05-3.86-.1-4.78-.16a.93.93,0,0,1-.85-.91c0-.58,0-1.38,0-2.26v-1.73A51,51,0,0,1,137.2,184.81Z" transform="translate(-74.97 -75.21)"/><path class="cls-3" d="M137.2,224.28c0,.31,0,.63,0,.94v.93c0,.31,0,.62,0,.93s0,.61,0,.92,0,.61-.08.91-.07.6-.11.9-.1.6-.17.9-.13.59-.22.89-.18.59-.29.88-.23.58-.37.87a7.84,7.84,0,0,1-.45.86c-.1.17-.21.34-.32.51s-.23.33-.34.5a1.54,1.54,0,0,0-.29.83,1.32,1.32,0,0,0,.27.81,1.94,1.94,0,0,0,1.58.57,27,27,0,0,1,2.85.32c.92.15,1.83.34,2.73.58s1.77.5,2.64.81a7.78,7.78,0,0,0,1.15.39,1.55,1.55,0,0,0,1.18-.27,1.6,1.6,0,0,0,.58-.8,1.34,1.34,0,0,0,.08-.56,2.71,2.71,0,0,0-.39-1.17c-.09-.17-.18-.32-.28-.48l-.34-.48c-.11-.17-.24-.33-.36-.49s-.25-.35-.38-.53l-.39-.56c-.13-.21-.26-.41-.38-.62s-.25-.46-.37-.69-.23-.51-.33-.77a8.75,8.75,0,0,1-.3-.86c-.1-.31-.18-.64-.25-1s-.13-.72-.17-1.08-.09-.81-.1-1.21c0-.23,0-.47,0-.7v-.38c-2-1.13-4-2.37-6-3.61l-.32-.2v.23s0,.43,0,.47Z" transform="translate(-74.97 -75.21)"/><path class="cls-3" d="M126.3,207.82l.92-.15a16.32,16.32,0,0,1,2-.15V203c-.51.32-1.62,1-2.87,1.92C126.3,206,126.3,206.9,126.3,207.82Z" transform="translate(-74.97 -75.21)"/><path class="cls-3" d="M131.11,222.72a4.15,4.15,0,0,1-1-1,6.38,6.38,0,0,1-.93-3.25,29.53,29.53,0,0,0-2.89-1.16v1.24a6.34,6.34,0,0,1-.93,3.17A6.53,6.53,0,0,1,124,223c-.91.73-2.13,1.46-2.13,2.78a2.13,2.13,0,0,0,.82,1.68,2.44,2.44,0,0,0,2.13.37,13.31,13.31,0,0,1,2.5-.41,9.71,9.71,0,0,1,2.09.14,9.56,9.56,0,0,0,2,.35,2.16,2.16,0,0,0,2.13-2.13,2.85,2.85,0,0,0-1.31-2.12C131.88,223.35,131.5,223,131.11,222.72Z" transform="translate(-74.97 -75.21)"/><path class="cls-3" d="M114.18,161.5a5,5,0,0,0,.28.85c.92,2.15,3.78,3.84,5.85,2.07a2.75,2.75,0,0,0,1-2.09,2.77,2.77,0,0,0-5.26-1.24,3.82,3.82,0,0,1-.43-2.77,6.83,6.83,0,0,1,3-4,9.9,9.9,0,0,1,7.07-1.52c3,.3,5.57,1.85,8,3.53,1.25.85,2.5,1.68,3.81,2.43a21.4,21.4,0,0,0,5.05,1.86,32.37,32.37,0,0,0,9.85.93c1.81-.1,4.93-.75,4.49,0-2,3.56-6.33,6.74-9.77,10.22l-1.3,1.24v2.58a35.52,35.52,0,0,1,2.59,2.79l0,0c5.79-7.57,10.25-14.63,18.09-21.33a.84.84,0,0,0-.73-1.46c-3.13.72-7.11,1.71-10.51,1.39-12.09-.91-21.82-12.63-35.17-5.77-3.41,1.75-6.2,5.31-6.1,9.27A4.9,4.9,0,0,0,114.18,161.5Z" transform="translate(-74.97 -75.21)"/><path class="cls-3" d="M165.76,224.3a9.14,9.14,0,0,0,.35-5.3.3.3,0,0,0,0-.1,1.35,1.35,0,0,0-.08-.24,3.6,3.6,0,1,0-3.32,5,3.69,3.69,0,0,0,1.29-.24,2.35,2.35,0,0,1-.14,1.29,3.82,3.82,0,0,1-2.35,1.81c-9.74,3.59-13.73-6.75-23.83-14a13.31,13.31,0,0,0-10.1-2.53c-3.49.48-7.83,2.08-9.67,1.58a.57.57,0,0,1-.38-.8,15,15,0,0,1,1.08-1.86,17.77,17.77,0,0,1,1.3-1.7c.47-.53,1-1,1.48-1.54s1.06-1,1.62-1.42,1.13-.91,1.71-1.34l1.77-1.28,1.79-1.25c.66-.46,1.3-.92,1.95-1.39.88-.65,1.76-1.32,2.59-2,.55-.47,1.08-1,1.58-1.47l0,0,.47-.48V184.09c-.23.24-.44.48-.63.69-5.32,5.66-10.86,14.31-15.14,20.43-2.5,3.57-4.65,6.17-5.37,7a1.37,1.37,0,0,0-.33.77v0a1.4,1.4,0,0,0,1.74,1.48c16.87-4.24,27,14.53,43,14.35C161,228.86,164.4,227.37,165.76,224.3Z" transform="translate(-74.97 -75.21)"/><path class="cls-3" d="M164.17,172.2c.81-.8,2.2-1.3,2.2-2.63a1.69,1.69,0,0,0-1.05-1.58,2.28,2.28,0,0,0-.89-.18l-1.37.11a19.91,19.91,0,0,1-2.89,0l-.71-.06a.62.62,0,0,0-.52.23l-1.28,1.62c-.49.62-.09,1.28.42,1.76s.84.64,1.23,1c1,1,.72,2.78.72,4.08,0,1.55,0,3.11,0,4.66v.14c0,1.91,0,6.08,0,10.13a10.22,10.22,0,0,0,2.06-1.35c.39-.34.76-.68,1.11-1,0-7.35,0-14.61,0-14.75A3,3,0,0,1,164.17,172.2Z" transform="translate(-74.97 -75.21)"/><path class="cls-3" d="M158.36,200.2c-5-8.63-7.85-18.17-16.69-25.19-3.86-3.06-9.11-3.77-8.76-11.9,0-.93-1.52-.13-3.83-.18-2,0-2.88-.35-4.9-.26a2.34,2.34,0,0,0-.67.15,1.54,1.54,0,0,0-.44.36,1.33,1.33,0,0,0-.21,1.16,2.12,2.12,0,0,0,.86,1.12c.46.32.93.63,1.36,1a4.37,4.37,0,0,1,.9.87,2.27,2.27,0,0,1,.36,1.39s0,10.59,0,22c.94-1.27,1.9-2.52,2.86-3.72v-.26c0-.52,0-1.34,0-2.33v-.14c0-4.75-.28-13.38.85-13.32,2,.12,4.65,9.84,15.25,18.57,4.29,3.53,9.31,8.45,12.08,16.88.8,2.43,1.14,5.45,1.76,7.76a.76.76,0,0,0,1,.48,6.16,6.16,0,0,1,2.58-.56,4.55,4.55,0,0,1,.53,0c0-1.15,0-2.3,0-3.44l0-6.5c0-.61,0-2.44,0-4.91a.33.33,0,0,0-.48-.3c-.63.31-2.72,1.08-2.72,1.08s0,.67,0,.89l-.12,0A1.54,1.54,0,0,1,158.36,200.2Z" transform="translate(-74.97 -75.21)"/><path class="cls-3" d="M178.49,169.29c0-9.28-2.57-16.11-4.87-19.48-7.79-11.39-20.94-12.24-35.54-11.23-2.35.16-6,1-6.07,2.23-.18,2.19,5.27,1.95,5.2,5.07,0,.81,0,1.57,0,2.45,2.19.74,4.28,1.65,6.3,2.53a10.31,10.31,0,0,1,6.32-8.66c4.25-1.53,10.28-.9,13.87,1.58,4.35,3,6.33,10.35,6.46,15.94.28,12.26,2.47,23.91-6.73,31.85a13.34,13.34,0,0,1-2.77,1.78l-1.31.63c-.45.19-.91.36-1.37.52.55,1.07,1.1,2.14,1.68,3.19.08.13.14.25.21.38a14.07,14.07,0,0,0,2.82-1.26C172.87,191.69,178.49,182.83,178.49,169.29Z" transform="translate(-74.97 -75.21)"/><path class="cls-4" d="M132.89,270.14l4.43,1.62s.4-1,.42-1a14.63,14.63,0,0,1,.89-1.57,18,18,0,0,1,1.58-2.1c.56-.65,1.21-1.21,1.79-1.85l.15-.16.21.06a8.67,8.67,0,0,0,4.41,0l.21-.06.15.16c.55.59,1.15,1.12,1.68,1.72a19.22,19.22,0,0,1,1.69,2.23,13.9,13.9,0,0,1,.9,1.58,7.29,7.29,0,0,1,.42,1c.54-.22,1.11-.41,1.67-.61l2.43-.89a2.67,2.67,0,0,1,.33-.12l-.14-.22a15.1,15.1,0,0,0-2.77-3.25,19.86,19.86,0,0,0-4.16-2.95l.25-.33a3.71,3.71,0,0,0,.74-2.26,3.93,3.93,0,0,0-3.87-4h-3.47a4,4,0,0,0-3.14,6.25l.23.33a19.27,19.27,0,0,0-4.12,2.93A14,14,0,0,0,132.89,270.14Z" transform="translate(-74.97 -75.21)"/><path class="cls-4" d="M138.83,257.75a5.22,5.22,0,0,1,2.21-1.6l-.26-.49-.08-.14a4.78,4.78,0,0,1-.59-2.93,1.64,1.64,0,0,1,1.67-1.44,47.22,47.22,0,0,1,5.58,0,1.63,1.63,0,0,1,1.66,1.44,4.72,4.72,0,0,1-.59,2.93l-.07.14-.26.49a5.28,5.28,0,0,1,2.21,1.6c1.34-1,3.84-3.18,3.79-5.81a3.33,3.33,0,0,0-2.59-3.17,12,12,0,0,0-3.92-.2,38.06,38.06,0,0,1-6,0,11.93,11.93,0,0,0-3.92.2,3.31,3.31,0,0,0-2.59,3.17C135,254.57,137.49,256.77,138.83,257.75Z" transform="translate(-74.97 -75.21)"/><path class="cls-4" d="M138.05,263.26a5.18,5.18,0,0,1-.19-3.68,40.51,40.51,0,0,1-7.43-1.9,45.21,45.21,0,0,1-8.79-4.28c1.28-.8,3-3.36,4.39-6.63,1.8-4.27,2.29-8.15,1.09-8.65s-3.62,2.55-5.42,6.83a17.8,17.8,0,0,0-1.72,7.37q-1.87-1.27-3.63-2.69c-.27-.22-.51-.46-.77-.69,1.3-.65,3.2-3.07,4.78-6.24,2-4.08,2.75-7.84,1.61-8.41s-3.71,2.28-5.74,6.36a17.92,17.92,0,0,0-2.15,7c-1.23-1.11-2.42-2.27-3.54-3.48,1.33-.63,3.32-2.83,5.06-5.75,2.31-3.87,3.3-7.53,2.21-8.18s-3.82,2-6.13,5.84a18.83,18.83,0,0,0-2.6,6.42q-1.72-2-3.3-4.12c1.37-.51,3.47-2.37,5.43-4.92,2.65-3.46,4-6.87,3.05-7.61s-3.9,1.46-6.56,4.92a18.55,18.55,0,0,0-3.21,5.77q-1.41-2.06-2.68-4.23c1.29-.21,3.58-2,5.73-4.65,2.67-3.24,4.09-6.48,3.18-7.22s-3.8,1.28-6.47,4.52a16.66,16.66,0,0,0-3.36,5.8c-.86-1.54-1.64-3.12-2.39-4.72,1.29-.17,3.61-1.75,5.86-4.08,2.85-3,4.49-6,3.66-6.8s-3.81,1-6.65,3.91a17.08,17.08,0,0,0-3.67,5.22c-.15-.35-.32-.69-.47-1-.48-1.13-.94-2.28-1.37-3.44,1.26-.1,3.63-1.58,5.94-3.83,2.91-2.81,4.63-5.75,3.84-6.57s-3.78.81-6.69,3.63a17,17,0,0,0-3.75,4.92c-.48-1.37-.93-2.76-1.35-4.16,1.35-.24,3.57-1.52,5.8-3.44,3.07-2.65,5-5.5,4.22-6.36s-3.84.59-6.91,3.25a18.72,18.72,0,0,0-3.79,4.23c-.4-1.48-.75-3-1.08-4.48,1.27-.05,3.6-1.21,6-3.08,3.07-2.42,5-5.08,4.33-5.93s-3.71.4-6.78,2.82a17.48,17.48,0,0,0-3.92,4.09c-.25-1.3-.48-2.6-.67-3.91,1.29-.09,3.64-1.35,6-3.32,3.07-2.56,5-5.34,4.26-6.2s-3.79.52-6.86,3.08a18.66,18.66,0,0,0-3.75,4c-.2-1.57-.36-3.16-.48-4.74,1.35-.17,3.65-1.35,6-3.18,3.18-2.5,5.19-5.25,4.49-6.14s-3.85.42-7,2.92A20.2,20.2,0,0,0,90,191c-.09-1.84-.11-3.68-.1-5.52,1.29.08,3.7-.8,6.14-2.32,3.15-2,5.14-4.22,4.45-5.07s-3.79.07-6.94,2a17.33,17.33,0,0,0-3.61,2.9c.06-1.69.16-3.38.31-5.06A13.41,13.41,0,0,0,96,176c3.22-1.77,5.42-3.94,4.93-4.84s-3.51-.19-6.72,1.58a18.87,18.87,0,0,0-3.73,2.63c.2-1.73.43-3.46.71-5.18a12.92,12.92,0,0,0,5.61-1.49c3.17-1.46,5.41-3.37,5-4.26s-3.32-.42-6.48,1.05a18,18,0,0,0-3.67,2.21q.6-3.09,1.39-6.14a11.57,11.57,0,0,0,5.35-.85c3-1.06,5.24-2.61,5-3.46s-3-.68-6,.39a16,16,0,0,0-3.68,1.79c.11-.4.21-.8.32-1.19.41-1.33.84-2.65,1.31-4,.83.4,2.85.33,5.13-.26,2.85-.73,5-2,4.78-2.77s-2.68-.85-5.53-.12a13.79,13.79,0,0,0-3.75,1.5c.71-1.85,1.46-3.68,2.3-5.47a8.73,8.73,0,0,0,4.57.39c2.64-.29,4.71-1.13,4.63-1.87s-2.29-1.1-4.92-.8a12.23,12.23,0,0,0-3.62.89c.84-1.71,1.75-3.39,2.71-5a7.73,7.73,0,0,0,4,.9c2.38.07,4.32-.42,4.34-1.09s-1.9-1.25-4.28-1.32a10.73,10.73,0,0,0-3.43.39q1.44-2.37,3.06-4.63c.43.47,1.87.86,3.61.94,2.11.1,3.83-.3,3.86-.89s-1.66-1.14-3.76-1.24a9.47,9.47,0,0,0-3,.28c.45-.61.9-1.23,1.37-1.83.87-.08,2.5-1.14,4.08-2.75,2-2,3.11-4.08,2.55-4.64s-2.62.63-4.59,2.64c-1.6,1.63-2.63,3.29-2.67,4.16-.49.57-1,1.17-1.41,1.76a9.56,9.56,0,0,0-.07-2.94c-.32-2.09-1-3.7-1.64-3.61s-.79,1.85-.47,3.93c.29,1.85.9,3.32,1.44,3.57-1,1.36-2,2.74-3,4.17a11.7,11.7,0,0,0-.78-2.81c-.87-2.21-2.08-3.81-2.7-3.56s-.41,2.23.46,4.45a8.63,8.63,0,0,0,2.11,3.38q-1.47,2.37-2.76,4.84a13.31,13.31,0,0,0-1.31-3.08c-1.3-2.31-2.88-3.89-3.53-3.52s-.11,2.53,1.19,4.84a9.68,9.68,0,0,0,2.8,3.39c-.83,1.65-1.58,3.35-2.29,5.05a15.06,15.06,0,0,0-1.9-3.14c-1.79-2.33-3.77-3.81-4.42-3.31s.27,2.8,2.06,5.13A11.53,11.53,0,0,0,94,153.4c-.55,1.43-1.08,2.87-1.56,4.32-.17.52-.32,1-.48,1.56a15,15,0,0,0-2.48-3.47c-2.17-2.37-4.47-3.8-5.13-3.2s.56,3,2.73,5.4a11.67,11.67,0,0,0,4.28,3.25q-.84,3-1.48,6a16.44,16.44,0,0,0-3.07-3.55c-2.59-2.33-5.22-3.64-5.88-2.91s.92,3.21,3.52,5.54a12.32,12.32,0,0,0,5,3.08q-.57,3-.93,6.09a18.43,18.43,0,0,0-3.69-3.42c-3.05-2.21-6-3.31-6.64-2.45s1.35,3.33,4.4,5.54a13.79,13.79,0,0,0,5.65,2.73c-.17,1.82-.3,3.65-.38,5.48a18.36,18.36,0,0,0-4.23-3.63c-3.33-2.18-6.52-3.19-7.13-2.26s1.6,3.45,4.93,5.63c2.59,1.7,5.1,2.68,6.37,2.59,0,1.81-.05,3.62,0,5.43,0,.11,0,.22,0,.32A19.1,19.1,0,0,0,83,188c-3.66-2-7.08-2.75-7.63-1.73s2,3.46,5.63,5.44c2.87,1.55,5.59,2.36,6.9,2.14.1,1.71.24,3.42.43,5.13a18.65,18.65,0,0,0-5.48-2.54c-4-1.23-7.53-1.32-7.88-.2s2.63,3,6.64,4.26c3,.91,5.68,1.2,7,.82.2,1.41.42,2.81.67,4.2a17.79,17.79,0,0,0-6-1.91c-4.11-.67-7.59-.27-7.78.88s3,2.62,7.11,3.28c3.1.5,5.84.4,7.08-.18,0,.13,0,.27.07.4.31,1.47.65,2.94,1,4.39a17.36,17.36,0,0,0-6.47-1.55c-4.2-.32-7.69.37-7.78,1.55s3.25,2.39,7.45,2.72c3.32.25,6.18-.12,7.29-.87.41,1.48.87,2.95,1.36,4.41a19.24,19.24,0,0,0-6.47-.58c-4.35.23-7.83,1.41-7.76,2.63s3.65,2,8,1.78c3.12-.16,5.78-.81,7-1.62.42,1.14.86,2.27,1.34,3.39.14.33.28.65.43,1a18.23,18.23,0,0,0-6.75-.07c-4.32.62-7.68,2.11-7.51,3.31s3.82,1.69,8.14,1.07c3.22-.47,5.91-1.41,7-2.36.72,1.55,1.48,3.08,2.3,4.59a17.77,17.77,0,0,0-6.87.52c-4.29,1-7.54,2.8-7.25,4s4,1.35,8.28.34c3.24-.76,5.89-2,6.86-3,1,1.67,2,3.31,3.11,4.9-1.35-.46-4.24-.19-7.44.77-4.18,1.26-7.28,3.23-6.92,4.39s4,1.1,8.2-.16c3.68-1.1,6.52-2.76,6.9-3.94,1.22,1.72,2.53,3.39,3.91,5-1.49-.29-4.31.15-7.38,1.25-4.24,1.51-7.33,3.7-6.91,4.89s4.21.92,8.45-.6c3.67-1.31,6.47-3.13,6.89-4.36q1.83,2,3.84,3.87a19.47,19.47,0,0,0-6.72,2.43c-4.07,2.22-6.87,5-6.25,6.09s4.43.26,8.5-2c3.13-1.7,5.49-3.7,6.15-5.05l.83.71c1,.86,2.14,1.69,3.26,2.47a18.81,18.81,0,0,0-6.67,3.09c-3.85,2.6-6.37,5.57-5.65,6.65s4.43-.16,8.28-2.75c3.12-2.1,5.37-4.46,5.72-5.85a48.8,48.8,0,0,0,10,5,44.3,44.3,0,0,0,6,1.7c-2.12.37-4.19.77-5.66,1.06l-1.13.21a.73.73,0,0,0-.59.8l.08.74a.73.73,0,0,0,.86.64l1.2-.23c1.69-.33,4.18-.81,6.63-1.22C137.21,263.84,137.61,263.54,138.05,263.26Z" transform="translate(-74.97 -75.21)"/><path class="cls-4" d="M205.85,203.63a17.64,17.64,0,0,0-6,1.91q.38-2.08.66-4.2c1.34.38,4.05.09,7-.82,4-1.23,7-3.13,6.63-4.26s-3.87-1-7.88.2a18.9,18.9,0,0,0-5.48,2.54c.19-1.71.33-3.42.44-5.13,1.3.22,4-.59,6.9-2.14,3.66-2,6.18-4.41,5.63-5.44s-4-.25-7.64,1.73a19,19,0,0,0-4.76,3.45c0-.1,0-.21,0-.32,0-1.81,0-3.62,0-5.43,1.27.09,3.77-.89,6.37-2.59,3.33-2.18,5.53-4.7,4.92-5.63s-3.8.08-7.13,2.26a18.36,18.36,0,0,0-4.23,3.63c-.08-1.83-.2-3.66-.38-5.48a13.79,13.79,0,0,0,5.65-2.73c3.06-2.21,5-4.69,4.41-5.54s-3.59.24-6.65,2.45a18.62,18.62,0,0,0-3.68,3.42q-.37-3.06-.93-6.09a12.45,12.45,0,0,0,5-3.08c2.59-2.33,4.17-4.81,3.51-5.54s-3.28.58-5.88,2.91a17,17,0,0,0-3.07,3.55c-.43-2-.91-4-1.48-6a11.69,11.69,0,0,0,4.29-3.25c2.17-2.37,3.39-4.79,2.73-5.4s-3,.83-5.14,3.2a15.59,15.59,0,0,0-2.48,3.47c-.16-.52-.3-1-.47-1.56-.48-1.45-1-2.89-1.57-4.32a11.43,11.43,0,0,0,3.48-3.23c1.79-2.33,2.71-4.63,2.06-5.13s-2.64,1-4.43,3.31a15,15,0,0,0-1.89,3.14c-.72-1.7-1.47-3.4-2.29-5.05a9.9,9.9,0,0,0,2.8-3.39c1.3-2.31,1.83-4.48,1.19-4.84s-2.23,1.21-3.54,3.52a13.23,13.23,0,0,0-1.3,3.08c-.86-1.65-1.79-3.26-2.77-4.84a8.52,8.52,0,0,0,2.11-3.38c.88-2.22,1.09-4.21.47-4.45s-1.83,1.35-2.71,3.56a12.11,12.11,0,0,0-.77,2.81c-.93-1.43-1.93-2.81-3-4.17.54-.25,1.15-1.72,1.43-3.57.33-2.08.12-3.84-.47-3.93s-1.31,1.52-1.64,3.61a9.51,9.51,0,0,0-.06,2.94c-.47-.59-.93-1.19-1.41-1.76,0-.87-1.08-2.53-2.68-4.16-2-2-4-3.19-4.58-2.64s.58,2.63,2.55,4.64c1.58,1.61,3.2,2.67,4.07,2.75.48.6.92,1.22,1.37,1.83a9.38,9.38,0,0,0-3-.28c-2.11.1-3.79.65-3.77,1.24s1.76,1,3.87.89a6.37,6.37,0,0,0,3.61-.94c1.07,1.51,2.1,3,3.06,4.63a10.83,10.83,0,0,0-3.44-.39c-2.38.07-4.29.66-4.28,1.32s2,1.16,4.34,1.09a7.77,7.77,0,0,0,4-.9q1.44,2.47,2.7,5a12.15,12.15,0,0,0-3.61-.89c-2.64-.3-4.84.07-4.92.8s2,1.58,4.62,1.87a8.77,8.77,0,0,0,4.58-.39c.83,1.79,1.59,3.62,2.29,5.47a13.53,13.53,0,0,0-3.75-1.5c-2.85-.73-5.32-.68-5.53.12s1.94,2,4.79,2.77c2.28.59,4.3.66,5.13.26.46,1.31.9,2.63,1.3,4,.12.39.22.79.33,1.19a16.19,16.19,0,0,0-3.68-1.79c-3-1.07-5.73-1.24-6-.39s1.92,2.4,4.95,3.46a11.57,11.57,0,0,0,5.35.85c.53,2,1,4.08,1.38,6.14a17.9,17.9,0,0,0-3.66-2.21c-3.17-1.47-6.07-1.94-6.48-1.05s1.82,2.8,5,4.26a12.92,12.92,0,0,0,5.61,1.49c.29,1.72.52,3.45.71,5.18a19.07,19.07,0,0,0-3.72-2.63c-3.22-1.77-6.23-2.48-6.72-1.58s1.71,3.07,4.92,4.84a13.44,13.44,0,0,0,5.78,2c.14,1.68.25,3.37.31,5.06a17.15,17.15,0,0,0-3.62-2.9c-3.14-2-6.25-2.86-6.94-2s1.31,3.11,4.45,5.07c2.45,1.52,4.86,2.4,6.14,2.32,0,1.84,0,3.68-.09,5.52a20.54,20.54,0,0,0-3.63-3.58c-3.18-2.5-6.32-3.81-7-2.92s1.3,3.64,4.48,6.14c2.33,1.83,4.63,3,6,3.18-.12,1.58-.27,3.17-.47,4.74a18.92,18.92,0,0,0-3.75-4c-3.08-2.56-6.15-3.94-6.87-3.08s1.19,3.64,4.27,6.2c2.36,2,4.72,3.23,6,3.32-.2,1.31-.42,2.61-.67,3.91a17.56,17.56,0,0,0-3.93-4.09c-3.07-2.42-6.1-3.68-6.78-2.82s1.26,3.51,4.33,5.93c2.37,1.87,4.7,3,6,3.08-.32,1.5-.68,3-1.08,4.48a18.64,18.64,0,0,0-3.78-4.23c-3.08-2.66-6.17-4.11-6.92-3.25s1.15,3.71,4.23,6.36c2.22,1.92,4.45,3.2,5.8,3.44-.42,1.4-.87,2.79-1.35,4.16a17.27,17.27,0,0,0-3.76-4.92c-2.9-2.82-5.89-4.44-6.68-3.63s.93,3.76,3.83,6.57c2.32,2.25,4.68,3.73,5.95,3.83-.44,1.16-.89,2.31-1.38,3.44-.14.35-.31.69-.47,1a16.84,16.84,0,0,0-3.66-5.22c-2.85-3-5.83-4.71-6.65-3.91s.81,3.84,3.65,6.8c2.25,2.33,4.58,3.91,5.87,4.08-.75,1.6-1.54,3.18-2.39,4.72a16.88,16.88,0,0,0-3.37-5.8c-2.66-3.24-5.56-5.27-6.47-4.52s.52,4,3.18,7.22c2.15,2.62,4.45,4.44,5.74,4.65q-1.28,2.17-2.68,4.23a18.76,18.76,0,0,0-3.21-5.77c-2.66-3.46-5.6-5.66-6.57-4.92s.4,4.15,3.06,7.61c1.95,2.55,4.06,4.41,5.42,4.92q-1.56,2.13-3.29,4.12a19.1,19.1,0,0,0-2.61-6.42c-2.3-3.87-5-6.48-6.13-5.84s-.09,4.31,2.21,8.18c1.74,2.92,3.73,5.12,5.07,5.75-1.13,1.21-2.32,2.37-3.54,3.48a18.1,18.1,0,0,0-2.15-7c-2-4.08-4.6-6.93-5.74-6.36s-.42,4.33,1.61,8.41c1.57,3.17,3.47,5.59,4.78,6.24-.26.23-.51.47-.77.69q-1.77,1.41-3.64,2.69c.16-1.59-.46-4.38-1.71-7.37-1.8-4.28-4.23-7.33-5.42-6.83s-.72,4.38,1.08,8.65c1.38,3.27,3.12,5.83,4.4,6.63a45.49,45.49,0,0,1-8.79,4.28,40.82,40.82,0,0,1-7.44,1.9,5.3,5.3,0,0,1,.26,1.55,5.08,5.08,0,0,1-.46,2.12c.45.29.87.59,1.28.88,2.44.42,4.92.9,6.6,1.22l1.2.23a.73.73,0,0,0,.86-.64l.08-.74a.73.73,0,0,0-.58-.8l-1.14-.21c-1.46-.29-3.53-.69-5.66-1.06a44.43,44.43,0,0,0,6-1.7,48.72,48.72,0,0,0,9.94-5c.36,1.39,2.61,3.75,5.72,5.85,3.85,2.59,7.56,3.83,8.28,2.75s-1.8-4-5.65-6.65a18.7,18.7,0,0,0-6.66-3.09c1.11-.78,2.2-1.61,3.26-2.47l.83-.71c.65,1.35,3,3.35,6.14,5.05,4.08,2.22,7.88,3.1,8.51,2s-2.18-3.87-6.26-6.09a19.5,19.5,0,0,0-6.71-2.43c1.33-1.24,2.62-2.53,3.84-3.87.41,1.23,3.22,3.05,6.89,4.36,4.24,1.52,8,1.79,8.44.6s-2.67-3.38-6.91-4.89c-3.07-1.1-5.89-1.54-7.38-1.25,1.39-1.6,2.69-3.27,3.91-5,.39,1.18,3.23,2.84,6.91,3.94,4.18,1.26,7.85,1.33,8.2.16s-2.75-3.13-6.93-4.39c-3.19-1-6.09-1.23-7.43-.77,1.1-1.59,2.14-3.23,3.1-4.9,1,1.07,3.62,2.28,6.87,3,4.29,1,8,.86,8.28-.34s-3-3-7.26-4a17.71,17.71,0,0,0-6.86-.52q1.22-2.26,2.3-4.59c1.08.95,3.77,1.89,7,2.36,4.32.62,8,.14,8.13-1.07s-3.18-2.69-7.5-3.31a18.22,18.22,0,0,0-6.75.07c.14-.33.29-.65.42-1,.48-1.12.92-2.25,1.35-3.39,1.24.81,3.9,1.46,7,1.62,4.36.24,7.94-.56,8-1.78s-3.41-2.4-7.77-2.63a19.24,19.24,0,0,0-6.47.58c.5-1.46.95-2.93,1.37-4.41,1.11.75,4,1.12,7.28.87,4.21-.33,7.55-1.55,7.45-2.72s-3.57-1.87-7.78-1.55a17.3,17.3,0,0,0-6.46,1.55c.37-1.45.71-2.92,1-4.39,0-.13,0-.27.08-.4,1.23.58,4,.68,7.08.18,4.11-.66,7.29-2.13,7.1-3.28S210,203,205.85,203.63Z" transform="translate(-74.97 -75.21)"/><path class="cls-3" d="M174,108.44a.9.9,0,0,1,.19-1.78,1.78,1.78,0,0,0-.08-3.56,1,1,0,0,1-.91-.28,1,1,0,0,1-.17-.42.89.89,0,0,1,.67-1,1.78,1.78,0,0,0-.45-3.5,1.62,1.62,0,0,0-.8.21l-.22.13a.76.76,0,0,1-.67.08,1,1,0,0,1-.54-.74,1.09,1.09,0,0,1,.09-.57,1.5,1.5,0,0,1,.4-.5,1.28,1.28,0,0,0,.26-.26,1.49,1.49,0,0,0,.2-.31,1.7,1.7,0,0,0,.17-.73,1.78,1.78,0,0,0-2.89-1.39,1.46,1.46,0,0,0-.38.44,1.4,1.4,0,0,1-.39.48.88.88,0,0,1-1.29-1.07,1.73,1.73,0,0,0,.22-.85,1.78,1.78,0,0,0-3.52-.36,1.4,1.4,0,0,1-.23.72.87.87,0,0,1-1.51-.35c0-.2,0-.4-.07-.6A1.76,1.76,0,0,0,159.32,91l-.11.09a1.8,1.8,0,0,0-.56.82,1.6,1.6,0,0,0,0,.72,1,1,0,0,1-.58,1.11.88.88,0,0,1-1.11-.56,1.78,1.78,0,0,0-3.46.84,2.29,2.29,0,0,1,.17.72.88.88,0,0,1-.41.7.86.86,0,0,1-.64.13.87.87,0,0,1-.47-.25c-.16-.16-.26-.37-.42-.53a1.81,1.81,0,0,0-1.25-.52,1.78,1.78,0,0,0-1.07,3.2l-.71.22a1.2,1.2,0,0,1-1.47-.9c-.22-.95-.43-1.84-.61-2.59a2.32,2.32,0,0,1,0-1.08,2.41,2.41,0,0,1,.22-.56,3.64,3.64,0,0,1,.51-.65,3.9,3.9,0,0,0,1.07-2.69,4,4,0,0,0-1.77-3.3,2.58,2.58,0,0,1-1.13-2.13V82.08h.77a4.25,4.25,0,0,1,3.65,1.79V78.1a4.34,4.34,0,0,1-3.79,1.8s-.63,0-.63,0V79a4.31,4.31,0,0,1,1.8-3.77h-5.77a4.24,4.24,0,0,1,1.78,3.65v1h-.67a4.31,4.31,0,0,1-3.77-1.8v5.77a4.25,4.25,0,0,1,3.65-1.79h.79V83.8a2.56,2.56,0,0,1-1.14,2.14,4,4,0,0,0-.54,6.19,2.18,2.18,0,0,1,.57,2.1c-.18.75-.39,1.64-.61,2.59a1.21,1.21,0,0,1-1.48.9l-.7-.22a1.78,1.78,0,0,0-1.07-3.2,1.81,1.81,0,0,0-1.25.52c-.16.16-.26.37-.42.53a.87.87,0,0,1-.47.25.86.86,0,0,1-.64-.13.88.88,0,0,1-.41-.7,2.29,2.29,0,0,1,.17-.72,1.78,1.78,0,0,0-3.46-.84.88.88,0,0,1-1.11.56.9.9,0,0,1-.59-.78,5.49,5.49,0,0,1,0-.58,1.64,1.64,0,0,0-.62-1.29l-.11-.09a1.76,1.76,0,0,0-2.78,1.16c0,.2,0,.4-.07.6a.87.87,0,0,1-1.51.35,1.31,1.31,0,0,1-.23-.72,1.78,1.78,0,0,0-3.52.36,1.73,1.73,0,0,0,.22.85.88.88,0,0,1-1.29,1.07,1.4,1.4,0,0,1-.39-.48,1.46,1.46,0,0,0-.38-.44,1.78,1.78,0,0,0-2.89,1.39,1.7,1.7,0,0,0,.17.73,1.49,1.49,0,0,0,.2.31,1.54,1.54,0,0,0,.25.26,1.41,1.41,0,0,1,.41.5,1,1,0,0,1,.08.57,1,1,0,0,1-.53.74.76.76,0,0,1-.67-.08l-.22-.13a1.62,1.62,0,0,0-.8-.21,1.78,1.78,0,0,0-.45,3.5.89.89,0,0,1,.67,1,1,1,0,0,1-.17.42,1,1,0,0,1-.91.28,1.78,1.78,0,0,0-.09,3.56.9.9,0,0,1,.2,1.78,1.78,1.78,0,0,0,.33,3.52,2.68,2.68,0,0,1,.89.08.88.88,0,0,1,.43.56.82.82,0,0,1-.47,1.05,1.78,1.78,0,0,0,.59,3.46,1.9,1.9,0,0,0,.63-.12.87.87,0,0,1,.8,1.54,1.78,1.78,0,0,0,.73,3.4,2.11,2.11,0,0,0,.6-.11,1.85,1.85,0,0,1,.48-.07,1.57,1.57,0,0,1,1.29,2.43,2.81,2.81,0,0,0-.45,2.13,2.84,2.84,0,0,0,1.19,1.84,2.91,2.91,0,0,0,1.63.51h.15a.35.35,0,0,1,.26.11.34.34,0,0,1,.09.32.38.38,0,0,1-.09.18,1.59,1.59,0,0,1-.27.18,1.1,1.1,0,0,0-.43.66,1.06,1.06,0,0,0,.13.78l0,0a1.1,1.1,0,0,0,.92.5,1.15,1.15,0,0,0,.59-.17,35.71,35.71,0,0,1,19.52-5.93h.13A35.72,35.72,0,0,1,164,131.26a1.15,1.15,0,0,0,.59.17,1.1,1.1,0,0,0,.92-.5l0,0a1.09,1.09,0,0,0-.3-1.44,1.59,1.59,0,0,1-.27-.18.52.52,0,0,1-.1-.18.37.37,0,0,1,.1-.32.34.34,0,0,1,.27-.12h.14a2.91,2.91,0,0,0,1.63-.51,2.84,2.84,0,0,0,1.19-1.84,2.81,2.81,0,0,0-.45-2.13,1.57,1.57,0,0,1,1.29-2.43,1.85,1.85,0,0,1,.48.07,2.11,2.11,0,0,0,.6.11,1.78,1.78,0,0,0,.73-3.4.87.87,0,0,1,.8-1.54,1.9,1.9,0,0,0,.63.12,1.78,1.78,0,0,0,.59-3.46.82.82,0,0,1-.47-1.05.88.88,0,0,1,.43-.56,2.68,2.68,0,0,1,.89-.08,1.78,1.78,0,0,0,.33-3.52Zm-31.8-19.2a2.17,2.17,0,1,1,2.17,2.17A2.17,2.17,0,0,1,142.22,89.24Zm2.17,6.31c.73,3.08,1.8,7.58,2.22,9.37a9,9,0,0,0-2.22,2.24,9.19,9.19,0,0,0-2.22-2.24C142.59,103.13,143.66,98.63,144.39,95.55Zm-23.72,23.38c-3-5.52-4.29-10.65-3.68-15.27a10.32,10.32,0,0,1,2.51-5.84,8.91,8.91,0,0,1,4.61-2.64,15.83,15.83,0,0,1,10.34,1.37,18.76,18.76,0,0,1,1.69.93,17.06,17.06,0,0,0,2.63,1.34,13.76,13.76,0,0,0,2.21.59c-.78,3.29-1.46,6.11-1.46,6.11l-.22.92.06,0a6,6,0,0,1,3.6,3.61,3.73,3.73,0,0,1,.21.67q.09.34.15.69a5.62,5.62,0,0,0-10.16-1.08,9.18,9.18,0,0,0,0-1.89,9.65,9.65,0,0,0-5.51-7.73,9.57,9.57,0,0,0,.66,11,5.63,5.63,0,0,0-7.65,7.2Zm5.24,3.54a5.63,5.63,0,0,1-5-3,46.22,46.22,0,0,1,10.19-4.81,5.65,5.65,0,0,1-5.21,7.84Zm8.76,2.41-3.66-2,2-3.67,3.67,2Zm-2.24-10.66a42.86,42.86,0,0,1,11.13-1.72,5,5,0,0,1,.08.77,5.64,5.64,0,0,1-11.21,1Zm12,9.33a2.65,2.65,0,1,1,2.64-2.64A2.64,2.64,0,0,1,144.39,123.55Zm.75-10.28a6.68,6.68,0,0,1,.07-.77,42.87,42.87,0,0,1,11.14,1.72,5.64,5.64,0,0,1-11.21-1ZM154,124.88l-2-3.67,3.67-2,2,3.67Zm8.92-2.41a5.65,5.65,0,0,1-5.21-7.84,46.22,46.22,0,0,1,10.19,4.81A5.63,5.63,0,0,1,162.87,122.47Zm5.24-3.54a5.64,5.64,0,0,0-5.24-7.77,5.59,5.59,0,0,0-2.41.57,9.57,9.57,0,0,0,.66-11,9.65,9.65,0,0,0-5.51,7.73,9.94,9.94,0,0,0,0,1.89,5.61,5.61,0,0,0-10.15,1.08q.06-.35.15-.69a3.73,3.73,0,0,1,.21-.67,6,6,0,0,1,3.6-3.61l.06,0-.22-.92s-.68-2.82-1.46-6.11a13.76,13.76,0,0,0,2.21-.59,17.06,17.06,0,0,0,2.63-1.34,18.76,18.76,0,0,1,1.69-.93,15.83,15.83,0,0,1,10.34-1.37,8.91,8.91,0,0,1,4.61,2.64,10.32,10.32,0,0,1,2.51,5.84C172.4,108.28,171.14,113.41,168.11,118.93Z" transform="translate(-74.97 -75.21)"/><path id="_Compound_Path_" data-name="&lt;Compound Path&gt;" class="cls-4" d="M305.09,172.87a2.79,2.79,0,0,1,2.77-2.4h10.78c5,0,11.11,1.16,11.4,6.7a8.42,8.42,0,0,1-2.14,6.5c-2.38,2.51-6.65,3.78-12.67,3.78H303Zm15.25-20h-27.7a3.92,3.92,0,0,0-3.88,3.37c-2.07,14.6-10.16,71.54-10.16,71.54h18.68l2.91-20.35a2.75,2.75,0,0,1,2.73-2.36h10.41c12.79,0,23.24-3.59,29.42-10.1,4.71-5,6.89-11.38,6.49-19.07-.8-15.28-10.52-23-28.9-23" transform="translate(-74.97 -75.21)"/><path id="_Compound_Path_2" data-name="&lt;Compound Path&gt;" class="cls-4" d="M378.81,176.42a21.61,21.61,0,0,1,15.83-6.69c11.48,0,17.06,8.4,17.5,16.72a24.05,24.05,0,0,1-6.32,17.82,21.26,21.26,0,0,1-15.6,6.61c-10.06,0-17.17-6.68-17.69-16.62a23.76,23.76,0,0,1,6.28-17.84m16.78-24.81c-12,0-22.52,4.35-30.33,12.57-7.94,8.37-12.51,20.46-11.93,31.56,1,19.58,15.81,33.26,35.95,33.26,12.28,0,23.33-4.51,31.11-12.71S432,197,431.32,184.76c-1-19.83-15.4-33.15-35.73-33.15" transform="translate(-74.97 -75.21)"/><path id="_Path_" data-name="&lt;Path&gt;" class="cls-4" d="M489.44,210.17H454.61L462.16,157a3.67,3.67,0,0,0-3.62-4.18H447.29a3.7,3.7,0,0,0-3.66,3.17l-10.18,71.75h57.72l1.89-13.44A3.65,3.65,0,0,0,489.44,210.17Z" transform="translate(-74.97 -75.21)"/><path id="_Path_2" data-name="&lt;Path&gt;" class="cls-4" d="M513.36,152.86a3.65,3.65,0,0,0-3.62,3.14l-10.19,71.77h18.68l10-70.74a3.66,3.66,0,0,0-3.62-4.17Z" transform="translate(-74.97 -75.21)"/><path id="_Path_3" data-name="&lt;Path&gt;" class="cls-4" d="M574.69,169.74c5.77,0,10.33,1.51,14.11,4.72.39.33.76.68,1.12,1a3.69,3.69,0,0,0,5,.27l7.37-6.11A4.1,4.1,0,0,0,603,164c-.28-.37-.57-.74-.87-1.09-6.35-7.61-15.28-11.33-27.18-11.33-12.88,0-24.28,4.54-32.1,12.78-7.46,7.85-11.23,18.55-10.63,30.12C533.52,220,554,229,571.09,229c10.17,0,18.8-2.79,25.14-8a30.24,30.24,0,0,0,5-5.35,3.72,3.72,0,0,0-.33-4.87L594,203.9a3.69,3.69,0,0,0-5.25.07,21.6,21.6,0,0,1-3.91,3.17A26,26,0,0,1,571,210.88c-11.18,0-19.06-7.13-19.62-17.75a21.89,21.89,0,0,1,5.81-16.45c4.25-4.48,10.47-6.94,17.5-6.94" transform="translate(-74.97 -75.21)"/><path id="_Path_4" data-name="&lt;Path&gt;" class="cls-4" d="M671.55,152.86H621.06a3.66,3.66,0,0,0-3.63,3.16l-10.19,71.76h57.92l1.93-13.42a3.67,3.67,0,0,0-3.63-4.19H628.4l1.33-9.45a2.75,2.75,0,0,1,2.72-2.37h33.72a3.65,3.65,0,0,0,3.61-3.14l1.41-9.79a3.65,3.65,0,0,0-3.61-4.16h-35l1.18-8.41a2.75,2.75,0,0,1,2.72-2.37h33.69a3.66,3.66,0,0,0,3.62-3.14l1.44-10.26A3.7,3.7,0,0,0,671.55,152.86Z" transform="translate(-74.97 -75.21)"/><path class="cls-4" d="M288.09,262.14,278.27,247l-2.12,15.18h-2.46l2.77-19.47h2l9.79,15.25,2.13-15.25h2.45l-2.77,19.47Z" transform="translate(-74.97 -75.21)"/><path class="cls-4" d="M308.17,261c-.72,5-3.26,6.92-7.08,6.92-2.7,0-5-1.5-5.53-3.56l2-.86a3.86,3.86,0,0,0,3.74,2.2c2.72,0,4-1.42,4.65-4.7l.13-.7a5.2,5.2,0,0,1-4.43,2.06,5.69,5.69,0,0,1-5.93-5.75c-.31-6,3.89-9.27,7.93-9.27a5.48,5.48,0,0,1,4.11,1.45l.16-1.14h2.23Zm-1.73-3.73.94-6a4.23,4.23,0,0,0-3.74-1.67c-3,0-5.82,2.59-5.61,6.65a3.77,3.77,0,0,0,4.08,3.95A5,5,0,0,0,306.44,257.3Z" transform="translate(-74.97 -75.21)"/><path class="cls-4" d="M324.18,260a5.55,5.55,0,0,1-4.56,2.37c-3.53,0-5.66-2.43-5.84-5.79-.3-5.76,4-9.23,8-9.23a5.81,5.81,0,0,1,4,1.22l.12-.89h2.14L326,262.14h-2.12Zm.25-2.75,1-6.31a4.18,4.18,0,0,0-3.53-1.4c-3.09,0-6,2.7-5.8,6.76a3.69,3.69,0,0,0,4,3.84A5.1,5.1,0,0,0,324.43,257.25Zm-5.19-14.91h7.49l-.28,2.06H319Z" transform="translate(-74.97 -75.21)"/><path class="cls-4" d="M341.83,262.14l2.77-19.47h7.58c4.62,0,7.06,2,7.22,5.09.19,3.56-2,7.21-8.86,7.21h-5.16l-1,7.17Zm5-17.1-1.11,7.56h5c4,0,6.21-1.55,6.06-4.5-.1-1.75-1.45-3.06-4.62-3.06Z" transform="translate(-74.97 -75.21)"/><path class="cls-4" d="M364.3,247.68h2.25l-1.91,14.46h-2.26Zm1.59-5.78a1.51,1.51,0,0,1,1.49,1.39,1.27,1.27,0,0,1-1.35,1.33,1.39,1.39,0,0,1-1.46-1.33A1.29,1.29,0,0,1,365.89,241.9Z" transform="translate(-74.97 -75.21)"/><path class="cls-4" d="M372.85,247.68h2.25l-.18,1.31a3.71,3.71,0,0,1,3-1.62,2.89,2.89,0,0,1,2.63,1.31L379,250.29a1.61,1.61,0,0,0-1.54-.72,3.41,3.41,0,0,0-2.93,2.5l-1.42,10.07h-2.26Z" transform="translate(-74.97 -75.21)"/><path class="cls-4" d="M385.1,247.68h2.26l-1.92,14.46h-2.26Zm1.59-5.78a1.51,1.51,0,0,1,1.49,1.39,1.27,1.27,0,0,1-1.35,1.33,1.39,1.39,0,0,1-1.46-1.33A1.29,1.29,0,0,1,386.69,241.9Z" transform="translate(-74.97 -75.21)"/><path class="cls-4" d="M394.32,241.84h2.25l-1,7.65a7,7,0,0,1,5-2.12c2.86,0,4.62,1.59,4.76,4.37a14,14,0,0,1-.17,2.62L404,262.14h-2.22l1.16-7.59a10.16,10.16,0,0,0,.13-2.25,2.59,2.59,0,0,0-2.93-2.73,5.8,5.8,0,0,0-5,3l-1.25,9.56h-2.26Z" transform="translate(-74.97 -75.21)"/><path class="cls-4" d="M412,247.68h2.26l-1.92,14.46h-2.26Zm1.59-5.78a1.51,1.51,0,0,1,1.49,1.39,1.27,1.27,0,0,1-1.35,1.33,1.4,1.4,0,0,1-1.46-1.33A1.29,1.29,0,0,1,413.56,241.9Z" transform="translate(-74.97 -75.21)"/><path class="cls-4" d="M438.43,262.14h-2.25l1.29-8.87a10.76,10.76,0,0,0,0-1.64,2.12,2.12,0,0,0-2.37-2.06,4.59,4.59,0,0,0-4.17,2.64l-1.35,9.93h-2.25l1.33-9.62c.24-1.72-.54-3-2.27-3a5.08,5.08,0,0,0-4.33,2.92l-1.36,9.65h-2.26l2-14.46h2.26l-.27,1.86a5.79,5.79,0,0,1,4.4-2.17c1.92,0,3.3.81,3.85,2.26a5.86,5.86,0,0,1,4.78-2.26c2.31,0,4.18,1.06,4.37,3.65a6.94,6.94,0,0,1-.09,1.53Z" transform="translate(-74.97 -75.21)"/><path class="cls-4" d="M454.48,260a5.54,5.54,0,0,1-4.55,2.37c-3.54,0-5.67-2.43-5.85-5.79-.3-5.76,4-9.23,8-9.23a5.81,5.81,0,0,1,4,1.22l.12-.89h2.15l-2.09,14.46h-2.11Zm.25-2.75,1-6.31a4.16,4.16,0,0,0-3.52-1.4c-3.09,0-6,2.7-5.8,6.76a3.69,3.69,0,0,0,4,3.84A5.08,5.08,0,0,0,454.73,257.25Z" transform="translate(-74.97 -75.21)"/><path class="cls-4" d="M464,247.68h2.26l-.24,1.81a7,7,0,0,1,5-2.12c2.87,0,4.62,1.59,4.77,4.37a15,15,0,0,1-.17,2.62l-1.21,7.78h-2.22l1.19-7.59a13,13,0,0,0,.13-2.25,2.6,2.6,0,0,0-2.93-2.73,5.83,5.83,0,0,0-5,3l-1.25,9.56h-2.25Z" transform="translate(-74.97 -75.21)"/><path class="cls-4" d="M491,260a5.56,5.56,0,0,1-4.56,2.37c-3.54,0-5.67-2.43-5.84-5.79-.31-5.76,4-9.23,8-9.23a5.8,5.8,0,0,1,4,1.22l.13-.89h2.14l-2.08,14.46h-2.12Zm.24-2.75,1-6.31a4.14,4.14,0,0,0-3.52-1.4c-3.09,0-6,2.7-5.8,6.76a3.69,3.69,0,0,0,4,3.84A5.07,5.07,0,0,0,491.26,257.25Z" transform="translate(-74.97 -75.21)"/><path class="cls-4" d="M513.69,247.35a6.16,6.16,0,0,1,6.52,5.92c.29,5.54-3.48,9.12-8,9.12-3.93,0-6.59-2.47-6.77-5.84C505.16,251,509.2,247.35,513.69,247.35Zm-1.36,12.85c2.92,0,5.74-2.56,5.53-6.54a4.13,4.13,0,0,0-4.37-4.12,6,6,0,0,0-5.7,6.46A4.23,4.23,0,0,0,512.33,260.2Z" transform="translate(-74.97 -75.21)"/><path class="cls-4" d="M540.23,242.62h2L548,262.14h-2.54L544,257.22h-9.47l-2.75,4.92h-2.87ZM535.81,255h7.57l-2.55-8.81Z" transform="translate(-74.97 -75.21)"/><path class="cls-4" d="M559.33,247.35a6.16,6.16,0,0,1,6.52,5.92c.29,5.54-3.48,9.12-8,9.12-3.93,0-6.59-2.47-6.77-5.84C550.8,251,554.84,247.35,559.33,247.35ZM558,260.2c2.92,0,5.74-2.56,5.53-6.54a4.13,4.13,0,0,0-4.37-4.12,6,6,0,0,0-5.7,6.46A4.23,4.23,0,0,0,558,260.2Z" transform="translate(-74.97 -75.21)"/><path class="cls-4" d="M569.92,247.68h2.68l.56-3.14h2.2l-.54,3.14h4.68l-.3,2.23h-4.73l-1,6.36a14.53,14.53,0,0,0-.2,2.17,1.63,1.63,0,0,0,1.82,1.67,3.34,3.34,0,0,0,2.5-1.19l1.21,1.47a5.28,5.28,0,0,1-4.15,1.95c-2.12,0-3.55-1.17-3.67-3a13.79,13.79,0,0,1,.18-2.42l1.08-7h-2.59Z" transform="translate(-74.97 -75.21)"/><path class="cls-4" d="M594.72,259.58a7.18,7.18,0,0,1-6,2.81,6.09,6.09,0,0,1-6.39-6.06,8.32,8.32,0,0,1,8.14-9c3,0,4.88,1.28,5,3.7.15,2.89-2.69,4.89-7.49,4.89a19.83,19.83,0,0,1-3.32-.28l0,.42A4.07,4.07,0,0,0,589,260.2a5.35,5.35,0,0,0,4.3-2Zm-9.8-5.81a22.89,22.89,0,0,0,2.6.17c3.87,0,5.64-1.34,5.57-2.64-.06-1-1-1.76-2.8-1.76A5.73,5.73,0,0,0,584.92,253.77Z" transform="translate(-74.97 -75.21)"/><path class="cls-4" d="M609.45,260a5.56,5.56,0,0,1-4.56,2.37c-3.54,0-5.67-2.43-5.84-5.79-.31-5.76,4-9.23,8-9.23a5.8,5.8,0,0,1,4,1.22l.12-.89h2.15l-2.08,14.46h-2.12Zm.24-2.75,1-6.31a4.18,4.18,0,0,0-3.53-1.4c-3.09,0-6,2.7-5.8,6.76a3.69,3.69,0,0,0,4,3.84A5.07,5.07,0,0,0,609.69,257.25Z" transform="translate(-74.97 -75.21)"/><path class="cls-4" d="M619.6,247.68h2.26l-.18,1.31a3.68,3.68,0,0,1,3-1.62,2.86,2.86,0,0,1,2.63,1.31l-1.61,1.61a1.62,1.62,0,0,0-1.54-.72,3.43,3.43,0,0,0-2.94,2.5l-1.42,10.07h-2.25Z" transform="translate(-74.97 -75.21)"/><path class="cls-4" d="M637.6,247.35a6.15,6.15,0,0,1,6.52,5.92c.29,5.54-3.47,9.12-8,9.12-3.92,0-6.59-2.47-6.76-5.84C629.07,251,633.12,247.35,637.6,247.35Zm-1.36,12.85c2.93,0,5.74-2.56,5.54-6.54a4.13,4.13,0,0,0-4.37-4.12,6,6,0,0,0-5.7,6.46A4.22,4.22,0,0,0,636.24,260.2Z" transform="translate(-74.97 -75.21)"/><path class="cls-4" d="M658.45,260a5.53,5.53,0,0,1-4.55,2.37c-3.54,0-5.67-2.43-5.85-5.79-.3-5.76,4-9.23,8-9.23a5.81,5.81,0,0,1,4,1.22l.12-.89h2.15l-2.08,14.46h-2.12Zm.25-2.75,1-6.31a4.16,4.16,0,0,0-3.52-1.4c-3.09,0-6,2.7-5.8,6.76a3.69,3.69,0,0,0,4,3.84A5.07,5.07,0,0,0,658.7,257.25Z" transform="translate(-74.97 -75.21)"/><path id="_Path_5" data-name="&lt;Path&gt;" class="cls-4" d="M308.73,137.94l-10.8-17.58-2.45,17.58h-4.09l3.32-23.37a2.28,2.28,0,0,1,2.24-1.95,2.25,2.25,0,0,1,1.91,1.07l9.26,15.25a.59.59,0,0,0,1.08-.22l2-14.35a2,2,0,0,1,2.21-1.74,2.08,2.08,0,0,1,1.76,2.39L312,137.94Z" transform="translate(-74.97 -75.21)"/><path id="_Path_6" data-name="&lt;Path&gt;" class="cls-4" d="M337.58,112.62h12.87a2,2,0,0,1,1.95,2.24l0,.15a2,2,0,0,1-2,1.74H339.75a1.54,1.54,0,0,0-1.52,1.31l-.73,5h10.44a2.06,2.06,0,0,1,2.1,2.06,2,2,0,0,1-2,1.92h-9.75a1.54,1.54,0,0,0-1.52,1.32l-.78,5.41h11.81a2,2,0,0,1,1.95,2.25l-.26,1.87H331.24l3.21-22.59a3.17,3.17,0,0,1,3.13-2.73" transform="translate(-74.97 -75.21)"/><path id="_Path_7" data-name="&lt;Path&gt;" class="cls-4" d="M474,112.62h12.86a2,2,0,0,1,2,2.24l0,.15a2,2,0,0,1-2,1.74H476.11a1.54,1.54,0,0,0-1.52,1.31l-.72,5H484.3a2.05,2.05,0,0,1,2.1,2.06,2,2,0,0,1-2,1.92h-9.75a1.53,1.53,0,0,0-1.52,1.32l-.78,5.41h11.8a2,2,0,0,1,2,2.25l-.26,1.87H467.6l3.22-22.59a3.17,3.17,0,0,1,3.13-2.73" transform="translate(-74.97 -75.21)"/><path id="_Path_8" data-name="&lt;Path&gt;" class="cls-4" d="M391.61,137.94h-3.47l-3.38-17.61-8.2,17.61H373l-3.56-23a2,2,0,0,1,2-2.35h.1a2,2,0,0,1,2,1.7l2.15,14.25a.38.38,0,0,0,.73.1l6.88-14.86a2.06,2.06,0,0,1,1.85-1.19h.73a2,2,0,0,1,2,1.63l2.67,14.28a.38.38,0,0,0,.73.08L397.37,114a2.09,2.09,0,0,1,1.66-1.31,2,2,0,0,1,2.09,2.77Z" transform="translate(-74.97 -75.21)"/><path id="_Path_9" data-name="&lt;Path&gt;" class="cls-4" d="M435.42,112.62H451a2,2,0,0,1,2,2.31,2.08,2.08,0,0,1-.51,1.09l-16,17.8h10.06a3.61,3.61,0,0,1,3.58,4.12H429.43a10.09,10.09,0,0,1,2.44-5.14l14.48-16.05h-11a2,2,0,0,1-2-2.33,2.08,2.08,0,0,1,2.06-1.8" transform="translate(-74.97 -75.21)"/><path id="_Path_10" data-name="&lt;Path&gt;" class="cls-4" d="M548.39,112.62h0a2.06,2.06,0,0,1,2,2.36l-2.68,18.84h9.49a3.63,3.63,0,0,1,3.61,4.12H543l3.31-23.51a2.1,2.1,0,0,1,2.07-1.81" transform="translate(-74.97 -75.21)"/><path id="_Path_11" data-name="&lt;Path&gt;" class="cls-4" d="M634.07,137.94l-10.79-17.58-2.45,17.58h-4.09l3.32-23.37a2.28,2.28,0,0,1,2.24-1.95,2.22,2.22,0,0,1,1.9,1.07l9.35,15.39a.53.53,0,0,0,1-.2l2.05-14.42a2.09,2.09,0,0,1,1.7-1.81,2,2,0,0,1,2.29,2.24l-3.24,23Z" transform="translate(-74.97 -75.21)"/><path id="_Compound_Path_3" data-name="&lt;Compound Path&gt;" class="cls-4" d="M663.53,118.39l-2.2,15.43h3.25c7.82,0,11-4.2,10.73-10.42-.18-4.3-2.46-6.65-8.25-6.65h-1.64a1.91,1.91,0,0,0-1.89,1.64m-3.71-3.19a3,3,0,0,1,3-2.58h4.92c8.8,0,11.76,4.85,12,10.2.42,9.63-5.05,15.12-16,15.12h-7.1Z" transform="translate(-74.97 -75.21)"/><path class="cls-4" d="M517.41,112.62a2.36,2.36,0,0,0-2.06,1.21l-13.46,24.11h4.67l3.05-5.6h10.75l1.55,5.6h4.27l-6.54-23.63A2.3,2.3,0,0,0,517.41,112.62Zm-5.75,15.95,4.48-8.29a.51.51,0,0,1,.94.11l2.25,8.18Z" transform="translate(-74.97 -75.21)"/><path class="cls-4" d="M591.14,112.62a2.36,2.36,0,0,0-2.06,1.21l-13.46,24.11h4.67l3.05-5.6h10.75l1.55,5.6h4.27l-6.54-23.63A2.3,2.3,0,0,0,591.14,112.62Zm-5.75,15.95,4.48-8.29a.51.51,0,0,1,.94.11l2.25,8.18Z" transform="translate(-74.97 -75.21)"/></svg>